<svg id="Layer_1" data-name="Layer 1" xmlns="http://www.w3.org/2000/svg" xmlns:xlink="http://www.w3.org/1999/xlink" viewBox="0 0 1642.21 254.7"><defs><style>.cls-1{fill:url(#linear-gradient);}.cls-2{fill:url(#linear-gradient-2);}.cls-3{fill:url(#linear-gradient-3);}.cls-4{fill:url(#linear-gradient-4);}.cls-5{fill:url(#linear-gradient-5);}.cls-6{fill:url(#linear-gradient-6);}.cls-7{fill:url(#linear-gradient-7);}.cls-8{fill:url(#linear-gradient-8);}.cls-9{fill:url(#linear-gradient-9);}.cls-10{fill:url(#linear-gradient-10);}.cls-11{fill:url(#linear-gradient-11);}.cls-12{fill:url(#linear-gradient-12);}.cls-13{fill:url(#linear-gradient-13);}</style><linearGradient id="linear-gradient" x1="1009.63" y1="-43.33" x2="1028.02" y2="385.6" gradientUnits="userSpaceOnUse"><stop offset="0" stop-color="#ffc82d"/><stop offset="0.17" stop-color="#f7c02d"/><stop offset="0.44" stop-color="#e0a92b"/><stop offset="0.78" stop-color="#ba8329"/><stop offset="1" stop-color="#9e6728"/></linearGradient><linearGradient id="linear-gradient-2" x1="1165.58" y1="-50.02" x2="1183.96" y2="378.92" xlink:href="#linear-gradient"/><linearGradient id="linear-gradient-3" x1="1316.97" y1="-56.5" x2="1335.35" y2="372.43" xlink:href="#linear-gradient"/><linearGradient id="linear-gradient-4" x1="1432.08" y1="-61.44" x2="1450.46" y2="367.5" xlink:href="#linear-gradient"/><linearGradient id="linear-gradient-5" x1="1542.46" y1="-66.17" x2="1560.85" y2="362.77" xlink:href="#linear-gradient"/><linearGradient id="linear-gradient-6" x1="75.62" y1="-3.3" x2="94" y2="425.63" xlink:href="#linear-gradient"/><linearGradient id="linear-gradient-7" x1="163.65" y1="-7.08" x2="182.03" y2="421.86" xlink:href="#linear-gradient"/><linearGradient id="linear-gradient-8" x1="269.86" y1="-11.63" x2="288.24" y2="417.31" xlink:href="#linear-gradient"/><linearGradient id="linear-gradient-9" x1="410.81" y1="-17.67" x2="429.2" y2="411.27" xlink:href="#linear-gradient"/><linearGradient id="linear-gradient-10" x1="521.67" y1="-22.42" x2="540.05" y2="406.52" xlink:href="#linear-gradient"/><linearGradient id="linear-gradient-11" x1="627.33" y1="-26.95" x2="645.72" y2="401.99" xlink:href="#linear-gradient"/><linearGradient id="linear-gradient-12" x1="820.1" y1="-12.71" x2="798.65" y2="269.16" gradientUnits="userSpaceOnUse"><stop offset="0" stop-color="#e42c46"/><stop offset="0.17" stop-color="#dc2a42"/><stop offset="0.45" stop-color="#c52539"/><stop offset="0.78" stop-color="#9f1c29"/><stop offset="1" stop-color="#84161e"/></linearGradient><linearGradient id="linear-gradient-13" x1="881.87" y1="-8.01" x2="860.43" y2="273.86" xlink:href="#linear-gradient-12"/></defs><title>title</title><path class="cls-1" d="M1040.45,123.27V75.73q0-19.32,22-19.32t22,19.32V187q0,19.32-22,19.32-12.23,0-19.33-8.44L993.8,139.27V187q0,19.32-22,19.32t-22-19.32V75.73q0-19.22,22-19.32,14.1-.12,20.21,9.1Z"/><path class="cls-2" d="M1252.7,129.94q0,34.76-22.54,56.25t-57.09,21.5q-34.54,0-56.87-21.5t-22.33-56.25q0-34.77,22.22-56.37T1173.34,52q35.06,0,57.21,21.61T1252.7,129.94Zm-52.64-27.88q-10-11-26.66-11t-26.77,11q-10.11,11.06-10.11,27.88t10.11,27.71q10.11,10.89,26.71,10.89t26.66-11q10.05-11,10-27.77T1200.06,102.06Z"/><path class="cls-3" d="M1344.45,91.73v95.52q0,19.32-22,19.32t-22-19.32V91.73h-22.21q-17.77,0-17.77-17.66t17.77-17.66h88.64q17.76,0,17.77,17.66t-17.77,17.66Z"/><path class="cls-4" d="M1416.09,206.35q-22,0-22-19.32V75.73q0-19.32,22-19.32h53.31q17.11,0,17.11,17.66T1469.4,91.73h-31.32v21.54H1465q17.1,0,17.11,17.78T1465,148.82h-26.88V171h31.32q17.11,0,17.11,17.66t-17.11,17.66Z"/><path class="cls-5" d="M1557.54,206.8a129,129,0,0,1-41.49-6.78q-20.1-6.77-20.1-24.21t15.77-17.44q2.34,0,18.55,6.11t28,6.11q11.82,0,11.83-10,0-6.56-8.11-10.94t-22.61-9.16q-14.49-4.78-18.16-7.22-16.87-11.22-16.88-32.71t14.11-34.82A45.62,45.62,0,0,1,1551,52.63q18.76,0,32.66,4.11,26,8.22,20.93,24.27T1586.14,96q-1.23,0-13.33-4.56t-21.49-4.55q-9.39,0-9.39,9.22,0,5.88,7.94,10.16a162.87,162.87,0,0,0,22.39,9.33q14.43,5.06,18.32,7.72,17.1,11.55,17.11,34.38T1593,193.8Q1578.92,206.81,1557.54,206.8Z"/><path class="cls-6" d="M88,206.8A128.93,128.93,0,0,1,46.52,200q-20.12-6.77-20.11-24.21t15.77-17.44q2.34,0,18.55,6.11t28.05,6.11q11.82,0,11.83-10,0-6.56-8.11-10.94t-22.6-9.16q-14.51-4.78-18.16-7.22-16.89-11.22-16.89-32.71T49,65.74A45.62,45.62,0,0,1,81.5,52.63q18.78,0,32.66,4.11Q140.16,65,135.1,81T116.6,96q-1.21,0-13.33-4.56T81.78,86.84q-9.39,0-9.38,9.22,0,5.88,7.94,10.16a162.12,162.12,0,0,0,22.38,9.33q14.43,5.06,18.32,7.72,17.11,11.55,17.11,34.38T123.49,193.8Q109.38,206.81,88,206.8Z"/><path class="cls-7" d="M191.57,187q0,19.32-22,19.32t-22-19.32V75.73q0-19.32,22-19.32t22,19.32Z"/><path class="cls-8" d="M276,102.61l30.88-37.1q7.54-9.11,20.43-9.1,22,0,22,19.32V187q0,19.32-22,19.32t-22-19.32V125.71L276,160.15l-29.32-34.21V187q0,19.32-22,19.32t-22-19.32V75.73q0-19.65,22-19.32,12.68.11,20.22,9.1Z"/><path class="cls-9" d="M404.39,156.37V187q0,19.32-22,19.32T360.4,187V76.18q0-19.34,22-19.33h49.77q18.54,0,31,14.61t12,34.76a53.41,53.41,0,0,1-13.83,35.16q-13.33,15-34.55,15Zm0-69.75v34.21h12.66q18.66,0,18.66-17.11t-18.66-17.1Z"/><path class="cls-10" d="M563,206.35H506.57q-22,0-22-19.32V75.73q0-19.32,22-19.32t22,19.32V171H563q13.77,0,13.77,17.66T563,206.35Z"/><path class="cls-11" d="M609.87,206.35q-22,0-22-19.32V75.73q0-19.32,22-19.32h53.31q17.1,0,17.11,17.66T663.18,91.73H631.86v21.54h26.88q17.1,0,17.1,17.78t-17.1,17.77H631.86V171h31.32q17.1,0,17.11,17.66t-17.11,17.66Z"/><path class="cls-12" d="M759.52,27.23h7.32q27.57,0,43.08,26.28a28.21,28.21,0,0,1,3.16,9.05h.58V28.24c.09-.67.43-1,1-1H917.92c.67.1,1,.43,1,1v.57q0,32.75-37.34,45.24A50,50,0,0,1,871,75.2h-56.3V232a.89.89,0,0,1-1,1h-1q-31,0-46.38-31a48.34,48.34,0,0,1-3.16-16.37V75.2H712.56c-.68,0-1-.38-1-1.15v-.43q0-32.88,37.34-45.38A57,57,0,0,1,759.52,27.23Z"/><path class="cls-13" d="M863.69,101.8h33.55c.33,0,.49.21.49.5v68.64q0,14.17-16.21,19.63a24.63,24.63,0,0,1-4.6.44H863.69q-13,0-19.57-12.55a16.69,16.69,0,0,1-1.61-7.52v-.24c0-.29.19-.44.43-.44h32.43V156.78H863.69q-12.74,0-19.38-12.73a20.92,20.92,0,0,1-1.37-7.33v-.25a.46.46,0,0,1,.5-.44h31.93V122.55H842.94a.38.38,0,0,1-.43-.43v-.25q0-11,10.75-17.33A21,21,0,0,1,863.69,101.8Z"/></svg>